Coordinates
version=1
nRows=13
nColumns=36
inDegrees=yes

Units are S.I. units (second, meters, Newtons, ...)
If the header above contains a line with 'inDegrees', this indicates whether rotational values are in degrees (yes) or radians (no).

endheader
time	pelvis_tilt	pelvis_list	pelvis_rotation	pelvis_tx	pelvis_ty	pelvis_tz	hip_flexion_r	hip_adduction_r	hip_rotation_r	knee_angle_r	knee_angle_r_beta	ankle_angle_r	subtalar_angle_r	mtp_angle_r	hip_flexion_l	hip_adduction_l	hip_rotation_l	knee_angle_l	knee_angle_l_beta	ankle_angle_l	subtalar_angle_l	mtp_angle_l	lumbar_extension	lumbar_bending	lumbar_rotation	arm_flex_r	arm_add_r	arm_rot_r	elbow_flex_r	pro_sup_r	arm_flex_l	arm_add_l	arm_rot_l	elbow_flex_l	pro_sup_l
      1.00000000	      1.67448201	      1.87601041	      0.04781465	      1.07527200	      0.94628409	     -0.28100126	     23.45246809	     -5.08601461	    -13.78528552	      4.08147326	      0.07123515	      0.85008717	    -14.41083662	     -7.27927606	    -14.10192944	      4.69602821	     -5.82386438	      2.01669929	      0.03519804	     11.95354148	     -8.87388270	     -7.27927606	     -7.45137008	     -2.57366078	     -9.47470761	    -19.09252349	     -1.46655277	    -23.94469303	     22.97917377	    112.17571946	     21.53479895	    -11.42116132	     -0.38272744	     52.23571768	    109.86376938
      1.01000000	      1.66272847	      2.06359285	      0.20472049	      1.08690682	      0.94394330	     -0.28016293	     23.42265752	     -5.12300290	    -13.42067790	      2.58020884	      0.04503314	      1.15579040	    -13.77493072	     -7.28183545	    -14.84438623	      4.76415704	     -5.68023900	      2.13690679	      0.03729606	     12.36958835	     -8.78379272	     -7.28183545	     -7.49724349	     -2.81029728	     -9.63665828	    -19.66454868	     -1.36934429	    -24.12019825	     22.99316924	    112.11702353	     21.86803668	    -11.51517633	     -0.03913812	     52.88493846	    109.86071275
      1.02000000	      1.63494154	      2.23579823	      0.34377337	      1.09860474	      0.94160211	     -0.27925766	     23.53962299	     -5.18337860	    -13.22925692	      1.68975746	      0.02949183	      1.53576912	    -13.24536135	     -7.28420149	    -15.51768163	      4.80684204	     -5.62708800	      2.35170249	      0.04104495	     12.70475579	     -8.68842278	     -7.28420149	     -7.55786583	     -2.99657391	     -9.75054311	    -20.18008763	     -1.25885828	    -24.27860245	     23.02872866	    112.14698934	     22.14154446	    -11.54270787	      0.21357488	     53.46136124	    109.90938241
      1.03000000	      1.64579678	      2.33443333	      0.48378353	      1.11052959	      0.93939520	     -0.27829995	     23.69260664	     -5.21490689	    -13.40066843	      1.39244317	      0.02430272	      2.53330315	    -12.02622449	     -7.29208639	    -16.18982450	      4.74075959	     -5.81777819	      2.66571973	      0.04652559	     13.18918117	     -8.16875620	     -7.29208639	     -7.63059697	     -3.07783795	     -9.90143720	    -20.69669400	     -1.13054926	    -24.73641038	     23.34757909	    112.24265571	     22.25796001	    -11.58603386	      0.46023601	     54.10613965	    109.90495470
      1.04000000	      1.57286351	      2.38204059	      0.61653608	      1.12261292	      0.93724367	     -0.27726204	     23.90330693	     -5.17145521	    -13.28439544	      1.38463714	      0.02416648	      2.55678973	    -11.97770349	     -7.29231047	    -16.80084725	      4.62424141	     -5.80823694	      2.90580672	      0.05071589	     13.18309957	     -8.17466946	     -7.29231047	     -7.52150801	     -3.12741874	    -10.06769859	    -21.04183773	     -1.12793963	    -24.76872482	     23.23376826	    112.23727421	     22.36936113	    -11.52324191	      0.46517443	     54.21033645	    109.91216183
      1.05000000	      1.57505073	      2.35844030	      0.83412013	      1.13486504	      0.93535527	     -0.27630108	     23.88549321	     -5.08266251	    -12.93836963	      1.54544432	      0.02697309	      2.70993776	    -11.90499471	     -7.29285322	    -17.37533243	      4.38554157	     -5.69501121	      3.40149493	      0.05936729	     13.18434523	     -8.17303414	     -7.29285322	     -7.53318273	     -3.03292705	    -10.14965193	    -21.41524419	     -1.06317366	    -24.79839361	     23.13233313	    112.23894397	     22.38284474	    -11.30360206	      0.50060596	     54.43693775	    109.93096224
      1.06000000	      1.65067296	      2.19946861	      0.98199717	      1.14731405	      0.93361119	     -0.27507718	     23.74725991	     -4.81559174	    -12.50567998	      2.00598778	      0.03501109	      3.55359345	    -11.68746013	     -7.30236299	    -17.87166188	      3.96141696	     -6.20635615	      4.24343391	      0.07406189	     13.72271048	     -7.54886127	     -7.30236299	     -7.69393940	     -2.79206608	    -10.29785933	    -21.73546070	     -1.00126662	    -25.17550262	     23.53470794	    112.36813959	     22.13109447	    -11.08729325	      0.05873214	     55.24804625	    109.92740223
      1.07000000	      1.68541296	      2.00373177	      1.16217859	      1.16002073	      0.93205763	     -0.27384967	     23.65016808	     -4.53260375	    -12.14026711	      2.77163628	      0.04837418	      3.75866890	    -12.05131294	     -7.30449156	    -18.39803198	      3.50711107	     -6.30780171	      4.91990823	      0.08586860	     13.64492068	     -7.60666631	     -7.30449156	     -7.70102127	     -2.49435789	    -10.36613699	    -21.96600022	     -1.01140443	    -25.24177108	     23.48124383	    112.39057243	     21.95064725	    -10.85268695	      0.00795780	     55.31941020	    109.92861712
      1.08000000	      1.71372821	      1.76047243	      1.32194074	      1.17295579	      0.93068731	     -0.27252638	     23.50413210	     -4.19576682	    -11.65564870	      3.66944168	      0.06404384	      3.75874069	    -12.27664154	     -7.30529480	    -18.92418052	      3.00359113	     -6.20232692	      5.59862154	      0.09771438	     13.44000084	     -7.59259654	     -7.30529480	     -7.67398596	     -2.13105333	    -10.43902402	    -22.12478830	     -1.07641632	    -25.28124487	     23.45596809	    112.39605057	     21.65596801	    -10.63252894	     -0.01262332	     55.29596063	    109.92487141
      1.09000000	      1.56004710	      1.51076335	      1.41268198	      1.18606056	      0.92918196	     -0.27082154	     23.63220597	     -3.78986304	    -10.97354697	      4.78669746	      0.08354363	      3.10743468	    -14.22155305	     -7.31536525	    -19.00692858	      2.43169241	     -6.84950095	      6.73689255	      0.11758096	     13.41711759	     -7.37152779	     -7.31536525	     -7.40844805	     -1.77241899	    -10.55082687	    -22.28384776	     -1.08154720	    -25.60400734	     23.62227376	    112.50349838	     20.99570404	    -10.27952181	     -0.79687404	     55.53375511	    109.91593707
      1.10000000	      1.54608446	      1.19375739	      1.51925867	      1.19940518	      0.92815212	     -0.26907842	     23.57342270	     -3.36550008	    -10.75613360	      5.95191473	      0.10388051	      2.79702225	    -14.87010734	     -7.31766165	    -19.29498654	      1.78931988	     -7.08461794	      7.75958411	      0.13543029	     12.93466894	     -7.51322499	     -7.31766165	     -7.27391387	     -1.32325009	    -10.51681431	    -22.37976558	     -1.12046431	    -25.63731755	     23.58807927	    112.52432272	     20.50050203	     -9.98819152	     -0.94658426	     55.31328286	    109.89694032
      1.11000000	      1.58816874	      0.87915209	      1.57784308	      1.21292025	      0.92748603	     -0.26718050	     23.37448810	     -2.92492588	    -10.34161273	      6.99827994	      0.12214303	      2.39550501	    -15.12814865	     -7.31843864	    -19.68136850	      1.16776275	     -6.92941030	      8.72804423	      0.15233311	     12.42736410	     -7.50493115	     -7.31843864	     -7.21482342	     -0.86874161	    -10.45744157	    -22.37710676	     -1.22732414	    -25.66129197	     23.56680126	    112.52778910	     19.89327307	     -9.71672552	     -1.01444712	     55.04333886	    109.87288607
      1.12000000	      1.30078085	      0.55259615	      1.56562278	      1.22649910	      0.92665336	     -0.26488766	     23.56109835	     -2.38869662	     -9.68273133	      7.95338189	      0.13881270	     -0.17552893	    -18.19856679	     -7.32786053	    -19.34233873	      0.45037175	     -7.64357832	     10.32047266	      0.18012623	     11.53594302	     -7.82151861	     -7.32786053	     -6.69489795	     -0.45779593	    -10.44843040	    -22.27523280	     -1.31959870	    -25.71600905	     23.41286907	    112.59373179	     19.03633841	     -9.22761857	     -2.05444859	     54.68902323	    109.87345034
